<svg xmlns="http://www.w3.org/2000/svg" xmlns:xlink="http://www.w3.org/1999/xlink" width="24" height="24" viewBox="0 0 24 24" fill="none">
<path d="M3.5 18.5C3.5 14.6483 3.5 5.5 3.5 5.5C3.5 3.84314 4.84314 2.5 6.5 2.5L17.5 2.5L17.5 15.5C17.5 15.5 9.1163 15.5 6.5 15.5C4.85 15.5 3.5 16.8421 3.5 18.5Z" stroke="rgba(42, 130, 228, 1)" stroke-width="2" stroke-linejoin="round"  >
</path>
<path    stroke="rgba(42, 130, 228, 1)" stroke-width="2" stroke-linejoin="round" stroke-linecap="round"  d="M17.5 15.5C17.5 15.5 7.07685 15.5 6.5 15.5C4.84314 15.5 3.5 16.8432 3.5 18.5C3.5 20.1569 4.84314 21.5 6.5 21.5C7.60455 21.5 12.9379 21.5 20.5 21.5L20.5 3.5">
</path>
<path    stroke="rgba(42, 130, 228, 1)" stroke-width="2" stroke-linejoin="round" stroke-linecap="round"  d="M7 18.5L17 18.5">
</path>
</svg>
